<svg width="56" height="51" viewBox="0 0 56 51" fill="none" xmlns="http://www.w3.org/2000/svg">
<path d="M28 50.8333C24.7708 50.8333 21.7466 50.2202 18.9273 48.994C16.108 47.7677 13.6539 46.1101 11.5648 44.0211C9.47577 41.932 7.81813 39.4778 6.5919 36.6586C5.36568 33.8393 4.75171 30.8142 4.74999 27.5833C4.74827 24.3524 5.36224 21.3282 6.5919 18.5106C7.82157 15.6931 9.47835 13.2389 11.5622 11.1481C13.6461 9.05736 16.1003 7.39972 18.9247 6.17522C21.7492 4.95072 24.7743 4.33675 28 4.3333C31.2257 4.32986 34.2508 4.94383 37.0752 6.17522C39.8997 7.40661 42.3538 9.06425 44.4377 11.1481C46.5216 13.232 48.1793 15.6862 49.4107 18.5106C50.642 21.3351 51.2552 24.3593 51.25 27.5833C51.2448 30.8073 50.6317 33.8324 49.4107 36.6586C48.1896 39.4847 46.532 41.9389 44.4377 44.0211C42.3435 46.1032 39.8893 47.7609 37.0752 48.994C34.2611 50.2271 31.236 50.8402 28 50.8333ZM35.2333 38.4333L38.85 34.8166L30.5833 26.55V14.6666H25.4167V28.6166L35.2333 38.4333ZM11.4667 0.0708008L15.0833 3.68747L4.10415 14.6666L0.487488 11.05L11.4667 0.0708008ZM44.5333 0.0708008L55.5125 11.05L51.8958 14.6666L40.9167 3.68747L44.5333 0.0708008Z" fill="white"/>
</svg>
