<svg width="206" height="206" viewBox="0 0 206 206" fill="none" xmlns="http://www.w3.org/2000/svg">
<path fill-rule="evenodd" clip-rule="evenodd" d="M103 1.1317e-09C116.526 -6.34028e-05 129.92 2.66406 142.416 7.84025C154.913 13.0164 166.267 20.6033 175.832 30.1678C185.396 39.7322 192.983 51.0868 198.16 63.5833C203.336 76.0799 206 89.4736 206 103C206 159.885 159.885 206 103 206C46.1148 206 0 159.885 0 103C0 46.1148 46.1148 1.1317e-09 103 1.1317e-09ZM113.3 113.3H92.6999C67.2002 113.3 45.3081 128.744 35.8657 150.789C50.8058 171.739 75.3076 185.4 103 185.4C130.692 185.4 155.194 171.739 170.134 150.788C160.692 128.744 138.8 113.3 113.3 113.3ZM103 30.9C85.9343 30.9 72.0998 44.7345 72.0998 61.8C72.0998 78.8654 85.9343 92.6999 103 92.6999C120.065 92.6999 133.9 78.8654 133.9 61.8C133.9 44.7345 120.066 30.9 103 30.9Z" fill="#777777"/>
</svg>
