<svg width="23" height="23" viewBox="0 0 23 23" fill="none" xmlns="http://www.w3.org/2000/svg">
<path d="M2.875 11.5C2.875 13.2059 3.38085 14.8734 4.32857 16.2918C5.2763 17.7102 6.62334 18.8157 8.19936 19.4685C9.77537 20.1213 11.5096 20.2921 13.1827 19.9593C14.8557 19.6265 16.3926 18.805 17.5988 17.5988C18.805 16.3926 19.6265 14.8557 19.9593 13.1827C20.2921 11.5096 20.1213 9.77537 19.4685 8.19936C18.8157 6.62334 17.7102 5.2763 16.2918 4.32857C14.8734 3.38085 13.2059 2.875 11.5 2.875C9.08879 2.88407 6.77443 3.82492 5.04083 5.50083L2.875 7.66667" stroke="black" stroke-width="2" stroke-linecap="round" stroke-linejoin="round"/>
<path d="M2.875 2.875V7.66667H7.66667M11.5 6.70833V11.5L15.3333 13.4167" stroke="black" stroke-width="2" stroke-linecap="round" stroke-linejoin="round"/>
</svg>
