<svg width="48" height="42" viewBox="0 0 48 42" fill="none" xmlns="http://www.w3.org/2000/svg">
<g opacity="0.5">
<path d="M27.9952 17.872H34.8193L27.9952 25.8175H34.8193M38.2313 1.98096H47.33L38.2313 12.575H47.33" fill="white"/>
<path d="M27.9952 17.872H34.8193L27.9952 25.8175H34.8193M38.2313 1.98096H47.33L38.2313 12.575H47.33" stroke="white" stroke-width="1.25" stroke-linecap="round" stroke-linejoin="round"/>
</g>
<path d="M2.66113 21.332C2.8344 25.8687 4.8869 30.1794 8.40918 33.4473L8.77051 33.7744C12.5285 37.092 17.5609 38.9994 22.8301 39.1396V40.7803C10.6784 40.4939 1.00649 31.8869 0.637695 21.332H2.66113ZM46.2734 21.332C45.9046 31.8871 36.2321 40.4942 24.0801 40.7803V39.1396C29.3496 38.9995 34.3824 37.0922 38.1406 33.7744C41.4703 30.8348 43.5681 26.9897 44.1172 22.875C44.4888 22.4473 44.8365 22.0019 45.1543 21.5371L45.2979 21.332H46.2734ZM17.9404 14.5898C18.1088 17.3928 19.4047 20.041 21.5781 22.0576L21.8076 22.2656C24.1328 24.3182 27.2233 25.5145 30.4668 25.6514V27.293C26.7684 27.1593 23.2576 25.8445 20.5898 23.6035L20.3203 23.3711C17.6468 21.0108 16.0916 17.8756 15.916 14.5898H17.9404ZM43.0078 21.0156C42.9988 21.4575 42.9712 21.8976 42.9238 22.335C41.7306 23.635 40.265 24.7356 38.5938 25.5684C36.4898 26.6167 34.1319 27.2068 31.7168 27.293V25.6514C33.6167 25.5721 35.4777 25.1297 37.1699 24.3486L37.542 24.1699C39.3379 23.2747 40.8732 22.0145 42.0244 20.4912L43.0078 21.0156ZM42.874 19.5283C43.377 19.1913 44.0245 19.0688 44.5977 19.1367V19.1377C44.9958 19.1856 45.4373 19.3489 45.7656 19.6201C45.9225 19.7498 46.0527 19.9024 46.1436 20.082H43.9131L42.874 19.5283ZM22.8301 1.34473L22.7412 1.3916L22.627 1.45312C22.0921 1.7378 21.5778 2.04966 21.085 2.38477C16.6281 2.83751 12.4292 4.55758 9.14062 7.32031L8.77051 7.63965C5.02752 10.9441 2.84016 15.3923 2.66113 20.082H0.637695C1.00631 9.52702 10.6783 0.919225 22.8301 0.632812V1.34473ZM23.7148 4.27051C22.1601 5.2036 20.8421 6.42341 19.8564 7.85449L19.6406 8.18066C18.6311 9.75904 18.0498 11.5254 17.9414 13.3398H15.917C16.0189 11.4151 16.593 9.52824 17.6094 7.81152L17.8418 7.43359C18.7842 5.95986 20.0367 4.65882 21.5293 3.59766C22.0819 3.54958 22.6387 3.52307 23.1982 3.5166L23.7148 4.27051ZM24.0801 0.708984C24.799 0.916344 25.1792 1.47136 25.2949 1.95215L25.3184 2.07129C25.3915 2.55228 25.2488 3.15085 24.7715 3.60254L24.0801 2.5918V0.708984Z" fill="white" stroke="white" stroke-width="1.25"/>
</svg>
