<svg width="49" height="49" viewBox="0 0 49 49" fill="none" xmlns="http://www.w3.org/2000/svg">
<path opacity="0.5" d="M27.9208 15.3789H34.758L27.9208 22.2159H34.758M38.1766 1.70471H47.2929L38.1766 10.8208H47.2929" stroke="#4074D8" stroke-width="1.25" stroke-linecap="round" stroke-linejoin="round"/>
<path d="M45.5814 24.4995C45.5814 30.0905 43.3603 35.4525 39.4068 39.406C35.4533 43.3594 30.0911 45.5805 24.5 45.5805V48.999C38.0308 48.999 49 38.0301 49 24.4995H45.5814ZM24.5 45.5805C18.9089 45.5805 13.5467 43.3594 9.5932 39.406C5.63967 35.4525 3.4186 30.0905 3.4186 24.4995H0C0 38.0301 10.9692 48.999 24.5 48.999V45.5805ZM3.4186 24.4995C3.4186 18.9085 5.63967 13.5465 9.5932 9.59301C13.5467 5.63956 18.9089 3.41853 24.5 3.41853V0C10.9692 0 0 10.9689 0 24.4995H3.4186ZM32.4767 29.6273C29.0012 29.6273 25.668 28.2467 23.2104 25.7891C20.7528 23.3316 19.3721 19.9984 19.3721 16.5229H15.9535C15.9535 20.9051 17.6943 25.1077 20.793 28.2064C23.8917 31.305 28.0945 33.0458 32.4767 33.0458V29.6273ZM43.7012 23.2893C42.5357 25.224 40.8896 26.8244 38.9228 27.935C36.956 29.0455 34.7354 29.6285 32.4767 29.6273V33.0458C35.3243 33.0473 38.1239 32.3126 40.6037 30.913C43.0836 29.5134 45.1594 27.4964 46.6298 25.0579L43.7012 23.2893ZM19.3721 16.5229C19.3711 14.2643 19.9542 12.0439 21.0648 10.0772C22.1753 8.11047 23.7756 6.46437 25.7102 5.29873L23.9416 2.37246C21.5032 3.84241 19.4863 5.91782 18.0866 8.39721C16.687 10.8766 15.9522 13.6758 15.9535 16.5229H19.3721ZM24.5 3.41853C24.2689 3.41309 24.0493 3.31641 23.8892 3.14961C23.7913 3.05443 23.7259 2.93082 23.7023 2.79636C23.6932 2.72571 23.6978 2.5206 23.9416 2.37246L25.7102 5.29873C26.8566 4.60591 27.2258 3.33649 27.0913 2.33828C26.95 1.30132 26.1341 0 24.5 0V3.41853ZM46.6298 25.0579C46.4793 25.3017 46.2742 25.3063 46.2036 25.2972C46.0691 25.2735 45.9455 25.2081 45.8503 25.1103C45.6835 24.9502 45.5868 24.7306 45.5814 24.4995H49C49 22.8654 47.6987 22.0495 46.6617 21.9082C45.6634 21.7738 44.394 22.143 43.7012 23.2893L46.6298 25.0579Z" fill="#4074D8"/>
</svg>
