<svg width="26" height="16" viewBox="0 0 26 16" fill="none" xmlns="http://www.w3.org/2000/svg">
<g opacity="0.8">
<path fill-rule="evenodd" clip-rule="evenodd" d="M1.77778 0.888889C1.77778 0.653141 1.68413 0.427048 1.51743 0.260349C1.35073 0.0936504 1.12464 0 0.888889 0C0.653141 0 0.427049 0.0936504 0.26035 0.260349C0.0936506 0.427048 0 0.653141 0 0.888889V15.1111C0 15.3469 0.0936506 15.573 0.26035 15.7397C0.427049 15.9064 0.653141 16 0.888889 16C1.12464 16 1.35073 15.9064 1.51743 15.7397C1.68413 15.573 1.77778 15.3469 1.77778 15.1111V13.6296H23.7037V15.1111C23.7037 15.3469 23.7974 15.573 23.9641 15.7397C24.1308 15.9064 24.3568 16 24.5926 16C24.8283 16 25.0544 15.9064 25.2211 15.7397C25.3878 15.573 25.4815 15.3469 25.4815 15.1111V12.1114C25.4815 9.94489 25.4815 8.62222 25.0987 7.52711C24.7606 6.56097 24.2093 5.68338 23.4857 4.95951C22.762 4.23563 21.8846 3.68407 20.9185 3.34578C19.8234 2.96178 18.5007 2.96296 16.3342 2.96296H15.9787C15.181 2.96296 14.5624 2.96178 14.035 3.14548C13.5728 3.30733 13.1531 3.57124 12.8069 3.91759C12.4608 4.26394 12.1971 4.68383 12.0356 5.14607C11.8519 5.6723 11.8519 6.29096 11.853 7.08978V11.8519H1.77896L1.77778 0.888889ZM23.7037 11.8519H13.6296V7.23793C13.6296 6.21867 13.6415 5.93422 13.7126 5.73274C13.7861 5.52267 13.906 5.33186 14.0634 5.17448C14.2207 5.01711 14.4116 4.89721 14.6216 4.8237C14.8231 4.75259 15.1076 4.74074 16.1268 4.74074C18.5659 4.74074 19.5579 4.75259 20.3307 5.024C21.0449 5.2738 21.6936 5.68128 22.2287 6.21619C22.7638 6.7511 23.1716 7.39968 23.4216 8.11378C23.6729 8.83437 23.7013 9.74933 23.7037 11.8519Z" fill="#510087"/>
<path fill-rule="evenodd" clip-rule="evenodd" d="M6.8148 2.96289C5.79323 2.96289 4.8135 3.36871 4.09113 4.09107C3.36877 4.81343 2.96295 5.79317 2.96295 6.81474C2.96295 7.83632 3.36877 8.81605 4.09113 9.53841C4.8135 10.2608 5.79323 10.6666 6.8148 10.6666C7.83638 10.6666 8.81611 10.2608 9.53847 9.53841C10.2608 8.81605 10.6667 7.83632 10.6667 6.81474C10.6667 5.79317 10.2608 4.81343 9.53847 4.09107C8.81611 3.36871 7.83638 2.96289 6.8148 2.96289ZM4.74073 6.81474C4.74073 6.26466 4.95925 5.73711 5.34821 5.34815C5.73718 4.95919 6.26472 4.74067 6.8148 4.74067C7.36488 4.74067 7.89243 4.95919 8.2814 5.34815C8.67036 5.73711 8.88888 6.26466 8.88888 6.81474C8.88888 7.36482 8.67036 7.89237 8.2814 8.28133C7.89243 8.6703 7.36488 8.88882 6.8148 8.88882C6.26472 8.88882 5.73718 8.6703 5.34821 8.28133C4.95925 7.89237 4.74073 7.36482 4.74073 6.81474Z" fill="#510087"/>
</g>
</svg>
