<svg width="23" height="23" viewBox="0 0 23 23" fill="none" xmlns="http://www.w3.org/2000/svg">
<path d="M22.1642 6.73408C22.7255 8.19851 23 9.81552 23 11.5C23 14.6136 22.06 17.4957 20.1147 19.6088C18.1595 21.7318 15.2605 23 11.5004 23C7.74027 23 4.84045 21.7318 2.88526 19.6088C0.940027 17.4965 0 14.6136 0 11.5C0 8.38636 0.940027 5.5035 2.88526 3.39119C4.84045 1.26815 7.74027 0 11.5012 0C13.5123 0 15.2774 0.362657 16.7832 1.0251C16.5591 1.17492 16.3785 1.38116 16.2595 1.62305C16.1405 1.86494 16.0873 2.13393 16.1054 2.40289C14.8196 1.84779 13.2884 1.53344 11.5012 1.53344C8.10448 1.53344 5.6371 2.66818 4.01467 4.4301C2.38074 6.20198 1.53349 8.68538 1.53349 11.4992C1.53349 14.3131 2.38151 16.7973 4.0139 18.5699C5.63633 20.3318 8.10294 21.4666 11.5004 21.4666C14.8978 21.4666 17.3644 20.3318 18.9869 18.5699C20.6193 16.798 21.4673 14.3146 21.4673 11.5C21.4673 9.92209 21.2005 8.44846 20.6783 7.14504L21.8407 6.85446C21.9552 6.82583 22.063 6.78571 22.1642 6.73408Z" fill="black"/>
<path d="M4.05838 11.7254C4.20217 11.5817 4.39716 11.5009 4.60047 11.5009C4.80379 11.5009 4.99877 11.5817 5.14256 11.7254C5.2522 11.8343 5.87327 12.2675 6.9007 12.2675C7.92814 12.2675 8.5492 11.8343 8.65884 11.7254C8.80345 11.5858 8.99714 11.5085 9.19817 11.5102C9.39921 11.512 9.59152 11.5926 9.73368 11.7348C9.87584 11.8769 9.95648 12.0692 9.95822 12.2703C9.95997 12.4713 9.88269 12.665 9.74302 12.8096C9.34048 13.2121 8.32685 13.8009 6.9007 13.8009C5.47456 13.8009 4.46093 13.2121 4.05838 12.8096C3.91464 12.6658 3.83389 12.4708 3.83389 12.2675C3.83389 12.0642 3.91464 11.8692 4.05838 11.7254ZM13.2593 11.7254C13.4031 11.5817 13.5981 11.5009 13.8014 11.5009C14.0047 11.5009 14.1997 11.5817 14.3435 11.7254C14.4524 11.8343 15.0742 12.2675 16.1016 12.2675C17.1291 12.2675 17.7501 11.8343 17.8598 11.7254C18.0044 11.5858 18.1981 11.5085 18.3991 11.5102C18.6001 11.512 18.7924 11.5926 18.9346 11.7348C19.0768 11.8769 19.1574 12.0692 19.1591 12.2703C19.1609 12.4713 19.0836 12.665 18.9439 12.8096C18.5414 13.2121 17.5278 13.8009 16.1016 13.8009C14.6755 13.8009 13.6618 13.2121 13.2593 12.8096C13.1156 12.6658 13.0348 12.4708 13.0348 12.2675C13.0348 12.0642 13.1156 11.8692 13.2593 11.7254ZM9.96768 17.6345C9.96768 17.2278 10.1292 16.8378 10.4168 16.5502C10.7044 16.2626 11.0945 16.1011 11.5012 16.1011C11.9079 16.1011 12.2979 16.2626 12.5855 16.5502C12.8731 16.8378 13.0346 17.2278 13.0346 17.6345C13.0346 18.0412 12.8731 18.4312 12.5855 18.7188C12.2979 19.0064 11.9079 19.168 11.5012 19.168C11.0945 19.168 10.7044 19.0064 10.4168 18.7188C10.1292 18.4312 9.96768 18.0412 9.96768 17.6345ZM21.3876 1.87617C21.453 1.74509 21.4795 1.59802 21.4639 1.45235C21.4483 1.30668 21.3914 1.16852 21.2997 1.05423C21.2081 0.939926 21.0856 0.854271 20.9468 0.807397C20.808 0.760523 20.6587 0.754394 20.5165 0.789733L17.4496 1.55645C17.3504 1.57944 17.2568 1.62195 17.1742 1.68149C17.0917 1.74104 17.0218 1.81643 16.9687 1.90326C16.9156 1.9901 16.8803 2.08664 16.8648 2.18726C16.8494 2.28788 16.8542 2.39056 16.8789 2.48931C16.9036 2.58806 16.9477 2.68091 17.0086 2.76244C17.0696 2.84397 17.1462 2.91254 17.2339 2.96417C17.3216 3.01579 17.4188 3.04942 17.5196 3.06311C17.6205 3.0768 17.7231 3.07026 17.8214 3.04388L19.2706 2.68123L17.7164 5.79103C17.651 5.92211 17.6245 6.06919 17.64 6.21486C17.6556 6.36052 17.7126 6.49868 17.8042 6.61298C17.8958 6.72728 18.0183 6.81293 18.1571 6.85981C18.2959 6.90668 18.4452 6.91281 18.5874 6.87747L21.6544 6.11075C21.7535 6.08776 21.8471 6.04525 21.9297 5.98571C22.0123 5.92617 22.0821 5.85078 22.1353 5.76394C22.1884 5.67711 22.2237 5.58057 22.2391 5.47995C22.2545 5.37933 22.2497 5.27665 22.225 5.17789C22.2004 5.07914 22.1562 4.98629 22.0953 4.90476C22.0343 4.82324 21.9578 4.75466 21.87 4.70304C21.7823 4.65142 21.6852 4.61778 21.5843 4.6041C21.4834 4.59041 21.3808 4.59695 21.2825 4.62332L19.8334 4.98598L21.3876 1.87617ZM14.1848 3.8336C14.0831 3.8336 13.9856 3.87399 13.9137 3.94589C13.8418 4.01778 13.8014 4.11529 13.8014 4.21696C13.8014 4.31863 13.8418 4.41614 13.9137 4.48804C13.9856 4.55993 14.0831 4.60032 14.1848 4.60032H15.7183L13.8781 7.05382C13.8353 7.11077 13.8093 7.1785 13.8029 7.2494C13.7965 7.32031 13.81 7.3916 13.8419 7.45528C13.8737 7.51895 13.9227 7.57251 13.9832 7.60994C14.0438 7.64737 14.1136 7.66719 14.1848 7.66719H16.485C16.5867 7.66719 16.6842 7.6268 16.7561 7.55491C16.828 7.48302 16.8684 7.38551 16.8684 7.28383C16.8684 7.18216 16.828 7.08465 16.7561 7.01276C16.6842 6.94086 16.5867 6.90047 16.485 6.90047H14.9515L16.7917 4.44698C16.8344 4.39002 16.8604 4.3223 16.8668 4.25139C16.8732 4.18048 16.8597 4.1092 16.8279 4.04552C16.7961 3.98184 16.7471 3.92829 16.6865 3.89086C16.626 3.85343 16.5562 3.8336 16.485 3.8336H14.1848ZM9.98761 5.62926C10.0198 5.53291 10.0889 5.45329 10.1798 5.40786C10.2706 5.36243 10.3758 5.35492 10.4722 5.38697L12.7724 6.15369C12.8425 6.17714 12.9044 6.22037 12.9505 6.27817C12.9966 6.33597 13.025 6.40586 13.0323 6.47944C13.0396 6.55302 13.0255 6.62713 12.9916 6.69286C12.9577 6.75858 12.9056 6.81311 12.8414 6.84987L10.9031 7.95854L12.3906 8.45461C12.4396 8.46948 12.4852 8.49403 12.5246 8.52682C12.564 8.55962 12.5964 8.59997 12.62 8.64551C12.6435 8.69106 12.6577 8.74085 12.6616 8.79196C12.6656 8.84307 12.6592 8.89445 12.643 8.94306C12.6267 8.99168 12.6009 9.03654 12.567 9.07499C12.5331 9.11344 12.4918 9.14471 12.4456 9.16693C12.3994 9.18916 12.3492 9.2019 12.298 9.20439C12.2468 9.20689 12.1957 9.19909 12.1475 9.18146L9.8473 8.41474C9.77718 8.39129 9.71533 8.34806 9.66922 8.29026C9.62311 8.23247 9.59469 8.16257 9.5874 8.08899C9.5801 8.01542 9.59425 7.9413 9.62811 7.87558C9.66198 7.80985 9.71414 7.75532 9.77829 7.71856L11.7159 6.60912L10.2284 6.11305C10.1322 6.08071 10.0527 6.01153 10.0074 5.9207C9.96216 5.82986 9.95476 5.72478 9.98684 5.62849" fill="black"/>
</svg>
